<svg width="34" height="34" viewBox="0 0 34 34" fill="none" xmlns="http://www.w3.org/2000/svg">
<path d="M18.4518 7.54322C20.4516 7.87838 22.2682 8.82292 23.7184 10.2702C25.1687 11.7175 26.1075 13.5304 26.451 15.5261M18.7571 1C22.314 1.60176 25.558 3.28517 28.1379 5.85218C30.7178 8.4268 32.397 11.6641 33 15.2138M30.2216 29.3361C30.2216 29.3361 28.2905 31.2328 27.8172 31.7889C27.0463 32.6115 26.138 33 24.9473 33C24.8328 33 24.7107 33 24.5962 32.9924C22.3292 32.8476 20.2226 31.9641 18.6426 31.2099C14.3224 29.1228 10.5289 26.1597 7.37653 22.4044C4.77374 19.2737 3.03345 16.3792 1.8809 13.2714C1.17104 11.3747 0.911527 9.89692 1.02602 8.50297C1.10235 7.61175 1.44582 6.87288 2.07935 6.24065L4.68214 3.64318C5.05615 3.29278 5.45306 3.10235 5.84233 3.10235C6.3232 3.10235 6.71248 3.39181 6.95673 3.63556C6.96436 3.64318 6.97199 3.65079 6.97962 3.65841C7.44523 4.09259 7.88793 4.54201 8.35353 5.0219C8.59015 5.26565 8.8344 5.5094 9.07865 5.76077L11.1624 7.84027C11.9715 8.6477 11.9715 9.39419 11.1624 10.2016C10.9411 10.4225 10.7273 10.6434 10.506 10.8567C9.86483 11.5118 10.3685 11.0091 9.70444 11.6033C9.68918 11.6185 9.67391 11.6261 9.66628 11.6414C9.00986 12.2965 9.13198 12.9363 9.26937 13.3705C9.277 13.3933 9.28464 13.4162 9.29227 13.439C9.8342 14.7492 10.5975 15.9832 11.7577 17.4533L11.7653 17.4609C13.872 20.0508 16.0931 22.0694 18.5433 23.6157C18.8562 23.8137 19.1768 23.9737 19.4821 24.126C19.7569 24.2631 20.0164 24.3926 20.2377 24.5297C20.2683 24.545 20.2988 24.5678 20.3293 24.583C20.5889 24.7125 20.8331 24.7735 21.085 24.7735C21.7185 24.7735 22.1154 24.3774 22.2452 24.2479L23.7413 22.7548C24.0008 22.4958 24.413 22.1835 24.8939 22.1835C25.3671 22.1835 25.7564 22.4806 25.993 22.7396C26.0006 22.7472 26.0006 22.7472 26.0083 22.7548L30.214 26.9519C31.0001 27.7289 30.2216 29.3361 30.2216 29.3361Z" stroke="black" stroke-width="2" stroke-linecap="round" stroke-linejoin="round"/>
</svg>
